<?xml version="1.0" encoding="UTF-8"?>
<svg id="Layer_1" data-name="Layer 1" xmlns="http://www.w3.org/2000/svg" viewBox="0 0 1000 1000">
  <defs>
    <style>
      .cls-1 {
        fill: #4575ff;
        stroke-width: 0px;
      }
    </style>
  </defs>
  <path class="cls-1" d="M230.34,884.04c56.22-78.59,70.13-73.41,60.12-177.31,12.62-80.62-30.3-191.41,32.3-253.25,68.53,3.55,14.26,258.55,30.23,320.49,8.85,29.78,65.39-42.66,75.58,11.51,12.37,27.01,74.6,148.41,64.43,72.51-13.9-9.88-21-14-4-28,41.45-34.13-124.59-135.27-103.36-221.78-2.35-64.92-7.3-103.87,63.07-119.82,33.11-37.33,134.86-25.84,161.52,17.84,80.98,129.81-7.23,217.76-70.23,287.76-9.58,10.64-12.55,26.88-4,31,27,13-8.98,41.99-7,55,17.33,14.97,50.56-84.51,72.13-109.55,17.74-15.38,60.44,34.3,64.04,3.96,1.78-94.08,1.34-188.24,6.26-282.23,60.03-129.42,66.59,131.26,59.84,168.95-2.72,98.41-13.61,135.85,49.22,216.69,5.58,4.09,12.27.77,12.33-5.99.55-74.74,1.1-149.49,1.18-224.23,21.57-132.02-59.37-113.87-50.34-208.85,1.16-29.13-65.93,6.6-68.18-22.29,1.24-54.38,87.72-22.8,125.28-35.92,94.59-32.72,186.45,93.52,86.43,149.59-32.54,9.82-94.74-48.45-65.95-80.09,9.64-17.42,49.79-2.97,37.46,14.98-18.18,11.37-4.81,39.49,15.35,28.21,43.46-25.04-3.72-92.38-48.38-76.85-79.5,41.54-20.73,105.91,30.51,130.16.04,97.26-.24,194.52.41,291.77,3.39,13.51-12.06,43.49,10.36,43.14,101.55-13.61,30.72,35.38,80.24,37.2,11.67,2.88,36.43-8.22,36.4,10.15-3.31,13.48,9.53,42.22-10.39,43.89-171.68,1.41-343.37.92-515.05.45-141.25,1.28-282.54,2.18-423.77-.78-28.41,8.84-21.25-50.53-2.98-49.68,22.02-.93,56.41,12.13,52.17-21.97,73.22-67.46,82.07,75.92,78.05-148.24.79-70.93,4.19-141.88,2.38-212.83-51.17-25.76-91.72-69.94-54.97-128.7,20.58-33.6,52.29-39.97,87.12-37.34,35.23,12.16,166.18-8.11,160.86,38.05-6.4,29.32-59.27-2.8-69.18,23.51,10.41,57.64-47.33,79.34-59.53,124.77,3.01,105.54-12.46,225.28,2.05,324.12ZM599.68,633.82c19.53-63.02-58.51-25.89-79.72-72.47-19.27-18.83-46.6,21.27-73,11.87-23.73-1.36-23.6-1.77-25.53,22.45-12.74,147.34,152.04,208.01,178.26,38.15ZM237.78,469.79c12.25-98.63-153.22-50.38-85.48,14.86,43.2-2.12-17.54-41.06,32.84-49.19,31.43,1.39,44.02,49.59,8.2,60.49-33.19,4.98-61.72,36.88-7.85,24.72,27.62-3.5,48.51-23.66,52.3-50.88Z"/>
  <path class="cls-1" d="M46.31,231.86C613.7-32.44,416.02-57.68,969.77,244.09c-21.06,59.93-279.99,26.07-366.06,55.91-99.77,32.1-198.32-5.82-298.46-17.87-84.64-12.86-190,1.28-258.95-50.27ZM515.91,263.2c83.26,10.8,115.26-123.79,22-136.08-94.67-16.01-111.19,124-22,136.08Z"/>
  <path class="cls-1" d="M886.45,349.21c-184.65-6.66-362.39,71.08-543.03,9.34-65.37-11.28-132.12-18.76-198.49-13.6-18.01,3.58-14.87-46.79-.11-45.43,143.02-10.2,282.26,56.78,422.1,38.61,79.94-18.72,163.89-25.38,245.93-30.58,38.37,1.7,87.81-15.02,73.61,41.66Z"/>
  <path class="cls-1" d="M512.75,164.81c-19.38,41.74,35.05,63.62,31.59,15.05-3.39-5.66-1.84-15.92,6.86-11.74,38.83,16.67,7.57,73.87-29.27,66.64-37.84-1.17-57.92-63.12-9.18-69.96Z"/>
</svg>